<svg width="12" height="19" viewBox="0 0 12 19" fill="none" xmlns="http://www.w3.org/2000/svg">
<path fill-rule="evenodd" clip-rule="evenodd" d="M5.99488 0C6.38136 1.74414 6.82494 3.13729 7.31829 4.17171C7.81164 5.20614 8.56704 6.32715 9.58009 7.5363L10.0163 8.04964C11.3398 9.60514 12 11.1653 12 12.7208C12 14.4433 11.4115 15.9199 10.233 17.1507C9.05014 18.3815 7.64036 19 5.9978 19C4.35964 19 2.95279 18.3815 1.76992 17.1507C0.589972 15.9199 0 14.4433 0 12.7208C0 11.1653 0.660242 9.60514 1.98365 8.04964L2.41991 7.5363C3.4315 6.32715 4.1869 5.20614 4.68171 4.17171C5.1736 3.13729 5.61425 1.74414 5.99488 0ZM2.02172 11.7961C1.99097 11.4436 2.23838 11.1313 2.57216 11.0988C2.90741 11.0663 3.20312 11.3276 3.2324 11.6802C3.30853 12.5337 3.48567 13.3207 3.82384 13.9995C4.1503 14.6551 4.63633 15.2195 5.33903 15.654C5.62889 15.8333 5.72551 16.2276 5.55569 16.5322C5.38587 16.8384 5.01257 16.9404 4.72417 16.7611C3.8092 16.1952 3.17531 15.4591 2.74637 14.5979C2.32914 13.7598 2.11248 12.812 2.02172 11.7961Z" fill="#C7DEFC"/>
</svg>
