<svg width="22" height="19" viewBox="0 0 22 19" fill="none" xmlns="http://www.w3.org/2000/svg">
<path d="M4.10742 12.3704C4.45371 12.4135 4.69836 12.7305 4.65529 13.0768C4.61222 13.4231 4.29521 13.6677 3.94891 13.6247C3.48891 13.5661 3.07198 13.4576 2.69295 13.3008C2.30186 13.1388 1.95556 12.9304 1.65062 12.6754C1.36118 12.4342 1.10791 12.1602 0.892557 11.8622C0.317121 11.0697 0.00700625 10.1014 0.000114801 9.13662C-0.00677665 8.16148 0.296447 7.19151 0.951134 6.40588C1.16305 6.1509 1.41286 5.91659 1.69886 5.70984C2.03137 5.46864 2.41212 5.26535 2.84284 5.09823C3.13917 4.9828 3.45618 4.88632 3.79041 4.80879C4.16944 3.30301 4.97746 2.14352 6.01635 1.33894C6.98804 0.586054 8.15787 0.146724 9.36215 0.0312926C10.5613 -0.0841391 11.7948 0.119159 12.9026 0.651523C14.1121 1.23213 15.1665 2.19865 15.8504 3.55799C16.1261 3.51492 16.4018 3.49252 16.6757 3.49597C17.8335 3.50286 18.9499 3.91807 19.8285 4.86564C20.0129 5.06377 20.1869 5.28774 20.3488 5.53756C20.9001 6.38521 21.1827 7.51713 21.1706 8.62493C21.1586 9.71205 20.8657 10.794 20.2661 11.5917C19.875 12.1103 19.3737 12.5341 18.7724 12.8701C18.1935 13.194 17.5182 13.4403 16.7601 13.6161C16.419 13.6936 16.0796 13.4817 16.0021 13.1405C15.9245 12.7994 16.1364 12.46 16.4776 12.3825C17.1167 12.2343 17.6784 12.031 18.1522 11.7657C18.6053 11.5124 18.9757 11.2041 19.2531 10.8336C19.6838 10.2599 19.8957 9.44845 19.9043 8.61631C19.9147 7.74282 19.701 6.86589 19.2858 6.22843C19.167 6.0458 19.036 5.87869 18.8982 5.73052C18.2762 5.06033 17.4872 4.76744 16.6671 4.76227C16.071 4.75883 15.4576 4.90182 14.8736 5.16025C14.7444 5.224 14.6152 5.29291 14.4859 5.36872C14.0983 5.59614 13.7158 5.87352 13.3247 6.19225L12.4909 5.23778C12.7786 4.97074 13.0904 4.72781 13.4212 4.51246C13.6848 4.34017 13.9605 4.18856 14.243 4.0559C14.3567 3.99904 14.4722 3.94563 14.5876 3.89567C14.038 2.92225 13.2472 2.2245 12.3513 1.79378C11.4554 1.36479 10.4527 1.19939 9.47585 1.29415C8.50588 1.38718 7.56348 1.74037 6.78474 2.3451C5.88369 3.04458 5.19971 4.08691 4.93611 5.47037L4.85342 5.90281L4.4227 5.97861C4.0006 6.05269 3.62329 6.15434 3.2925 6.28356C2.97205 6.4076 2.68606 6.56094 2.43624 6.74184C2.23639 6.88656 2.0641 7.04851 1.91766 7.22424C1.46455 7.76694 1.25436 8.44747 1.25953 9.13662C1.2647 9.8361 1.49211 10.5425 1.91249 11.1231C2.06927 11.3384 2.25017 11.5366 2.45692 11.7088C2.6671 11.8829 2.90314 12.0276 3.16846 12.1361C3.45101 12.2464 3.76284 12.3274 4.10742 12.3704ZM9.58439 13.7435C9.9617 15.4957 11.0953 16.3709 11.0953 17.2478C11.0953 18.1248 10.718 19 9.58439 19C8.45075 19 8.07344 18.1248 8.07344 17.2478C8.07344 16.3726 9.20537 15.4957 9.58439 13.7435ZM12.9371 9.11594C13.3144 11.018 14.448 11.969 14.448 12.92C14.448 13.871 14.0707 14.8221 12.9371 14.8221C11.8034 14.8221 11.4261 13.871 11.4261 12.92C11.4261 11.969 12.5598 11.018 12.9371 9.11594ZM7.88048 8.9316C8.1527 10.191 8.96761 10.8216 8.96761 11.4521C8.96761 12.0827 8.6954 12.7116 7.88048 12.7116C7.06557 12.7116 6.79336 12.081 6.79336 11.4521C6.79336 10.8216 7.60827 10.191 7.88048 8.9316Z" fill="#C7DEFC"/>
</svg>
