<svg width="31" height="19" viewBox="0 0 31 19" fill="none" xmlns="http://www.w3.org/2000/svg">
<path d="M7.23765 13.468C6.8315 13.468 6.50354 13.14 6.50354 12.7339C6.50354 12.3277 6.8315 11.9998 7.23765 11.9998H20.1968C20.2498 11.9998 20.3028 12.0048 20.3532 12.0174C20.8174 12.0881 21.2513 12.2192 21.6398 12.4286C22.0687 12.6607 22.4345 12.9811 22.717 13.41C23.6882 14.8807 23.5444 16.2455 22.8583 17.2546C22.4118 17.913 21.7306 18.4024 20.9789 18.6597C20.222 18.9196 19.3845 18.9448 18.6277 18.6673C17.4824 18.2485 16.554 17.1814 16.4178 15.249C16.39 14.8454 16.6953 14.4973 17.0989 14.4695C17.5026 14.4418 17.8507 14.747 17.8784 15.1506C17.9667 16.3969 18.4864 17.0578 19.1247 17.2899C19.556 17.4463 20.0505 17.4261 20.5071 17.2697C20.9713 17.1108 21.385 16.8181 21.6474 16.4322C22.0233 15.8797 22.0788 15.1002 21.4935 14.2147C21.3497 13.9978 21.163 13.8338 20.9435 13.7152C20.714 13.5916 20.4466 13.5109 20.1539 13.4655H7.23765V13.468ZM3.8875 6.86606C3.48134 6.86606 3.15339 6.53811 3.15339 6.13195C3.15339 5.72579 3.48134 5.39784 3.8875 5.39784H16.8063C17.1014 5.35243 17.3689 5.27171 17.5984 5.14809C17.8179 5.02953 18.0046 4.86555 18.1484 4.6486C18.7336 3.76313 18.6756 2.98361 18.3023 2.43113C18.0399 2.04516 17.6262 1.75253 17.162 1.5936C16.7054 1.43719 16.2084 1.41701 15.7795 1.57341C15.1438 1.8055 14.6216 2.46645 14.5333 3.71267C14.5056 4.1163 14.1574 4.42155 13.7538 4.3938C13.3502 4.36605 13.0449 4.01792 13.0727 3.61429C13.2089 1.68189 14.1373 0.614784 15.2826 0.196014C16.0394 -0.0789608 16.8769 -0.0537337 17.6337 0.203583C18.3855 0.460899 19.0666 0.952827 19.5132 1.60873C20.1993 2.61782 20.3431 3.9826 19.3719 5.45334C19.0893 5.8822 18.7235 6.20259 18.2947 6.43467C17.9062 6.64406 17.4723 6.77524 17.0081 6.84588C16.9577 6.85597 16.9047 6.86354 16.8517 6.86354H3.8875V6.86606ZM0.734108 10.1683C0.327952 10.1683 0 9.83781 0 9.43418C0 9.02802 0.327952 8.70007 0.734108 8.70007H27.7448C28.0399 8.65466 28.3073 8.57393 28.5344 8.45032C28.7538 8.33175 28.9405 8.16778 29.0843 7.95082C29.6696 7.06535 29.6116 6.28583 29.2382 5.73336C28.9758 5.34739 28.5621 5.05475 28.0979 4.89582C27.6413 4.73941 27.1444 4.71923 26.7155 4.87564C26.0798 5.10773 25.5576 5.76868 25.4693 7.0149C25.4415 7.41853 25.0934 7.72378 24.6898 7.69603C24.2861 7.66828 23.9809 7.32015 24.0086 6.91651C24.1449 4.98412 25.0732 3.91701 26.2185 3.49824C26.9753 3.22327 27.8129 3.24849 28.5697 3.50581C29.3215 3.76313 30.0026 4.25505 30.4491 4.91096C31.1353 5.92004 31.2791 7.28483 30.3078 8.75557C30.0253 9.18443 29.6595 9.50481 29.2306 9.7369C28.8421 9.94629 28.4082 10.0775 27.9441 10.1481C27.8936 10.1582 27.8406 10.1658 27.7876 10.1658H0.734108V10.1683Z" fill="#C7DEFC"/>
</svg>
